PathFileType	4	(X/Y/Z)	Kaydara																																																																																																																									
DataRate	CameraRate	NumFrames	NumMarkers	Units	OrigDataRate	OrigDataStartFrame	OrigNumFrames																																																																																																																					
30	30	5	41	mm	30	56	147																																																																																																																					
Frame#	Time	NABA_LFHD			NABA_RFHD			NABA_LBHD			NABA_RBHD			NABA_LFTShould			NABA_RFTShould			NABA_LRRShould			NABA_RRRShould			NABA_T10			NABA_STRN			NABA_TRUN			NABA_LSHO			NABA_LUPA			NABA_LELB			NABA_LFRM			NABA_LWRA			NABA_LWRB			NABA_LFIN			NABA_RSHO			NABA_RUPA			NABA_RELB			NABA_RFRM			NABA_RWRA			NABA_RWRB			NABA_RFIN			NABA_LFWT			NABA_RFWT			NABA_LBWT			NABA_RBWT			NABA_LTHI			NABA_LKNE			NABA_LSHN			NABA_LANK			NABA_LHEE			NABA_LTOE			NABA_RTHI			NABA_RKNE			NABA_RSHN			NABA_RANK			NABA_RHEE			NABA_RTOE		
		X1	Y1	Z1	X2	Y2	Z2	X3	Y3	Z3	X4	Y4	Z4	X5	Y5	Z5	X6	Y6	Z6	X7	Y7	Z7	X8	Y8	Z8	X9	Y9	Z9	X10	Y10	Z10	X11	Y11	Z11	X12	Y12	Z12	X13	Y13	Z13	X14	Y14	Z14	X15	Y15	Z15	X16	Y16	Z16	X17	Y17	Z17	X18	Y18	Z18	X19	Y19	Z19	X20	Y20	Z20	X21	Y21	Z21	X22	Y22	Z22	X23	Y23	Z23	X24	Y24	Z24	X25	Y25	Z25	X26	Y26	Z26	X27	Y27	Z27	X28	Y28	Z28	X29	Y29	Z29	X30	Y30	Z30	X31	Y31	Z31	X32	Y32	Z32	X33	Y33	Z33	X34	Y34	Z34	X35	Y35	Z35	X36	Y36	Z36	X37	Y37	Z37	X38	Y38	Z38	X39	Y39	Z39	X40	Y40	Z40	X41	Y41	Z41
																																																																																																																												
56	1.843	258.61843	1581.48056	-1781.87195	88.90874	1553.49976	-1762.8952	271.63166	1589.29321	-1908.03864	55.14549	1565.05249	-1858.65753	254.34175	1339.15375	-1867.91031	105.86346	1317.69226	-1860.22614	241.00491	1393.28842	-1987.72919	93.06912	1384.61624	-1966.87912	169.6105	1230.75302	-2061.94809	192.67908	1276.70197	-1819.96933	199.48023	1175.16769	-1781.4064	345.5838	1360.76172	-1929.31122	397.58171	1142.79213	-2010.51727	415.14008	1052.19826	-2002.57675	408.29506	983.45093	-2036.32187	369.68311	822.27371	-1989.50699	441.42818	826.73256	-1999.57794	426.31371	759.98589	-1966.21506	17.66996	1349.70642	-1893.53867	-43.68679	1150.91019	-1972.39441	-72.68057	1031.27937	-1936.18973	-74.81894	933.29002	-1928.8797	3.74312	811.66611	-1868.27423	-69.1153	798.18535	-1855.04166	-45.95365	763.25439	-1823.47031	307.44022	938.95355	-1911.96991	37.93669	937.68486	-1901.00586	244.72351	995.57365	-2075.1712	81.79946	1031.26595	-2065.56183	308.87182	651.91696	-2062.28485	301.6292	499.56329	-2013.30978	250.75865	301.62733	-2010.77484	283.31545	157.7173	-2090.53223	229.21314	111.27544	-2151.62628	253.76945	86.15993	-1979.38354	29.80221	669.18579	-2065.88791	51.26443	497.71492	-1972.20291	56.09073	327.37614	-2012.31094	46.30957	143.40225	-2092.02332	89.74163	99.68453	-2163.52554	75.5151	81.39834	-1980.57632
57	1.877	261.0618	1580.39856	-1770.79742	90.45103	1551.95755	-1751.33972	273.59621	1587.33582	-1896.1499	56.97519	1563.23029	-1847.35062	257.33433	1337.08298	-1855.56442	108.7782	1315.16663	-1848.94928	244.11663	1391.7099	-1975.38498	95.81876	1383.37204	-1955.47455	173.69524	1229.44122	-2050.62027	195.49011	1273.8459	-1808.37204	202.73041	1172.29347	-1770.68054	348.45261	1359.15939	-1916.70471	400.32719	1142.51411	-2001.23077	417.64076	1051.88583	-1994.84024	410.6768	984.1404	-2029.84695	371.59691	821.55037	-1986.87332	443.12634	826.30882	-1997.18643	427.38319	758.76091	-1965.67108	20.73158	1347.45911	-1882.55676	-40.83915	1152.83531	-1966.20316	-74.77614	1032.76657	-1932.48657	-76.53224	933.8102	-1923.88138	3.66605	813.41385	-1862.60941	-69.43921	800.06866	-1848.24905	-45.56649	765.91232	-1815.88348	309.57258	936.02585	-1902.1637	40.04976	935.70236	-1892.97913	249.00391	995.06332	-2065.0116	86.02781	1031.28731	-2056.22375	311.41087	650.67078	-2054.79004	302.89568	497.85545	-2007.03308	250.66328	300.02939	-2007.63748	283.40893	156.90516	-2090.4277	229.54613	111.42894	-2151.6774	253.01807	87.19326	-1980.07828	31.44372	668.53806	-2059.39865	52.4905	496.35387	-1966.01242	56.42167	326.79165	-2007.07565	46.46003	143.52456	-2091.28433	89.39956	100.14486	-2163.53256	75.04952	81.48589	-1980.7901
58	1.91	261.43063	1577.89948	-1756.4679	91.9832	1549.95102	-1738.60733	275.69193	1584.62936	-1882.91153	58.87111	1560.48553	-1834.74991	260.28788	1333.83774	-1840.97092	111.86552	1311.6011	-1836.83014	248.34555	1389.608	-1960.47455	99.9246	1381.60431	-1942.60834	179.53804	1228.10951	-2038.03741	198.53357	1270.30251	-1796.38306	205.44336	1168.34633	-1758.6734	351.86535	1356.74881	-1900.80597	404.39857	1141.45348	-1987.87811	420.64693	1050.5571	-1982.80869	414.17152	984.47418	-2019.87457	373.48984	820.53947	-1983.08304	445.26718	825.51277	-1992.01935	428.32417	756.95793	-1962.37549	24.15737	1344.72992	-1871.65558	-36.42232	1156.52786	-1964.07974	-77.48486	1036.30554	-1935.08011	-78.60518	935.88882	-1923.23715	3.89674	817.89818	-1860.02441	-69.60373	805.24773	-1843.28949	-44.36507	773.32024	-1809.79889	312.83901	932.85728	-1891.54266	43.38422	933.2843	-1884.11469	254.25776	994.47266	-2054.03931	90.74517	1031.18668	-2046.18057	314.66055	649.28329	-2047.27036	304.96777	495.95318	-2000.87204	251.16985	298.09128	-2004.49173	283.58669	156.08531	-2088.44452	229.88651	111.65853	-2151.6243	252.52274	87.69841	-1980.76004	34.33701	666.14426	-2049.25629	53.94311	493.95348	-1953.2132	57.09936	323.4874	-2000.0058	46.15229	144.03171	-2089.54758	89.07388	101.91456	-2163.17139	74.10649	81.53343	-1981.03363
59	1.943	262.52958	1574.15802	-1741.42426	92.3123	1547.16476	-1726.0022	277.80445	1580.28137	-1868.31406	60.8931	1556.13937	-1820.82016	262.53696	1329.23218	-1824.69406	114.67995	1306.77277	-1824.66553	254.24242	1386.20209	-1943.31345	105.12902	1378.91418	-1929.41116	187.20072	1225.89203	-2024.36951	200.13206	1264.56451	-1782.5383	206.92602	1162.86545	-1745.73074	355.96203	1352.36176	-1881.28281	409.40662	1137.47803	-1969.39621	423.50784	1046.33629	-1964.92142	417.93835	982.58774	-2004.08646	375.10818	817.56821	-1976.04111	447.12025	822.26791	-1982.04285	428.97797	752.84805	-1955.55313	27.8596	1341.22025	-1860.35843	-32.01911	1160.6913	-1964.82529	-77.94454	1039.75731	-1941.87164	-79.56925	939.10393	-1930.09659	2.58349	821.76697	-1864.37637	-71.45103	810.11055	-1848.7439	-45.96923	783.29979	-1810.87952	316.91311	928.71307	-1880.90012	47.85901	929.59595	-1875.0412	259.96313	993.1266	-2042.9715	95.93238	1029.16168	-2035.51147	318.78263	647.38876	-2039.67987	307.81452	493.4446	-1994.94858	251.964	295.78405	-2001.62338	283.90797	154.75182	-2088.11249	230.17353	111.5683	-2151.81152	251.85434	87.2562	-1981.55319	39.05792	659.77081	-2032.38129	55.86819	489.85237	-1927.9805	58.64324	320.28996	-1981.20407	44.72202	147.37706	-2084.54666	87.12382	108.69484	-2160.40634	72.97723	81.49103	-1980.67078
60	1.977	265.46755	1570.32745	-1726.50375	94.1683	1543.02948	-1709.69254	279.73028	1574.76059	-1851.92505	62.73316	1551.57074	-1804.91455	264.50314	1321.82983	-1808.58139	116.50279	1301.76956	-1812.45316	260.61954	1382.13898	-1924.30374	110.70648	1376.3382	-1916.72684	196.24207	1223.49022	-2010.23819	200.65479	1257.64862	-1768.72253	206.25292	1155.68008	-1732.57996	359.70226	1346.48148	-1858.58459	414.16374	1127.79625	-1943.14957	423.93429	1037.1946	-1938.73718	419.52209	976.381	-1980.59616	377.2049	810.18005	-1962.39212	449.38713	815.50224	-1965.4599	429.31488	744.19006	-1943.34381	31.48905	1337.64542	-1849.93317	-28.00368	1165.72197	-1959.70551	-72.60343	1043.13889	-1949.01291	-76.65225	942.02751	-1948.77716	-1.40486	815.96519	-1888.24005	-76.4571	806.50452	-1878.02628	-57.02217	789.39034	-1834.92111	321.25557	923.09158	-1870.20447	52.15892	924.11919	-1866.33514	266.09945	991.79962	-2031.8486	100.0114	1026.68083	-2025.62607	323.43937	645.39551	-2032.67197	310.92619	490.82432	-1989.94019	253.33179	293.81159	-1999.45114	284.0976	153.5991	-2087.31125	229.85151	111.60007	-2152.13943	252.88105	86.68343	-1983.25424	43.46207	652.05559	-2006.12976	59.25042	488.06435	-1883.82858	60.54438	320.78373	-1950.18631	43.85328	160.14158	-2071.59836	85.94472	129.21256	-2150.7608	71.00637	81.69751	-1975.81131
